<svg xmlns="http://www.w3.org/2000/svg" xmlns:xlink="http://www.w3.org/1999/xlink" width="253.194" height="67.878" viewBox="0 0 253.194 67.878">
  <defs>
    <linearGradient id="linear-gradient" x1="0.5" y1="-0.025" x2="0.5" y2="0.896" gradientUnits="objectBoundingBox">
      <stop offset="0" stop-color="#140f4d"/>
      <stop offset="0.47" stop-color="#1a1551" stop-opacity="0.98"/>
      <stop offset="0.64" stop-color="#2e2a61" stop-opacity="0.89"/>
      <stop offset="0.77" stop-color="#534f7c" stop-opacity="0.729"/>
      <stop offset="0.86" stop-color="#8684a3" stop-opacity="0.51"/>
      <stop offset="0.95" stop-color="#c8c7d6" stop-opacity="0.231"/>
      <stop offset="1" stop-color="#fff" stop-opacity="0"/>
    </linearGradient>
  </defs>
  <g id="Group_11" data-name="Group 11" transform="translate(-1538 -368)">
    <path id="Path_1" data-name="Path 1" d="M96.75,242.846a6.832,6.832,0,0,0-2.116-.354,5.535,5.535,0,0,0-1.452.19,2.794,2.794,0,0,0-2.094,1.7,1.8,1.8,0,0,0-.107.605,3.305,3.305,0,0,0,.853,2,6.022,6.022,0,0,0,2.906,1.972,9.833,9.833,0,0,1,5.405,4.121,7.389,7.389,0,0,1,1.235,3.925,6.247,6.247,0,0,1-3.156,5.457,8.907,8.907,0,0,1-4.777,1.29,10.686,10.686,0,0,1-3.373-.548,10.387,10.387,0,0,1-4.275-2.6l3.017-2.969a6.28,6.28,0,0,0,2.581,1.542,6.959,6.959,0,0,0,2.111.362,5.68,5.68,0,0,0,1.456-.19,2.7,2.7,0,0,0,2.094-1.7,1.822,1.822,0,0,0,.108-.626,3.38,3.38,0,0,0-.826-2.008,5.936,5.936,0,0,0-2.908-2,9.739,9.739,0,0,1-5.4-4.1,7.214,7.214,0,0,1-1.262-3.921,6.4,6.4,0,0,1,.3-1.919,6.608,6.608,0,0,1,4.2-4.17,9.64,9.64,0,0,1,3.426-.636,11.251,11.251,0,0,1,3.371.55,10.3,10.3,0,0,1,4.062,2.419l-2.91,3.07a6.174,6.174,0,0,0-2.465-1.464Z" transform="translate(1452.2 154.799)" fill="#140f4d"/>
    <path id="Path_2" data-name="Path 2" d="M238.468,238.84a12.773,12.773,0,0,1,12.758,12.752,11.685,11.685,0,0,1-3.7,8.755,12.553,12.553,0,0,1-9.056,3.565v-4.166a8.514,8.514,0,0,0,6.119-2.33,7.714,7.714,0,0,0,2.442-5.824,8.574,8.574,0,1,0-17.149,0v28.6h-4.17v-28.6a12.727,12.727,0,0,1,12.758-12.752Z" transform="translate(1338.919 154.337)" fill="#140f4d"/>
    <path id="Path_3" data-name="Path 3" d="M427.755,238.84a12.682,12.682,0,1,1-8.976,3.7A12.283,12.283,0,0,1,427.755,238.84Zm0,21.182a8.1,8.1,0,0,0,5.98-2.5,8.443,8.443,0,1,0-5.98,2.5Z" transform="translate(1185.617 154.337)" fill="#140f4d"/>
    <path id="Path_4" data-name="Path 4" d="M613.411,206.407a9.21,9.21,0,0,0,2.332,6.5,7.92,7.92,0,0,0,6.03,2.554l-.027,4.14a11.839,11.839,0,0,1-8.946-3.765,13.121,13.121,0,0,1-3.54-9.433V183.74H613.4v10.868h8.375v4.144H613.4Z" transform="translate(1028.372 198.95)" fill="#140f4d"/>
    <path id="Path_5" data-name="Path 5" d="M873.084,190.557a2.061,2.061,0,0,1-.636,1.523,2.141,2.141,0,0,1-3.651-1.523,2.008,2.008,0,0,1,.632-1.506,2.118,2.118,0,0,1,3.019,0A2.018,2.018,0,0,1,873.084,190.557Z" transform="translate(818.232 195.161)" fill="#140f4d"/>
    <path id="Path_6" data-name="Path 6" d="M873.187,252.9a9.214,9.214,0,0,0,2.356,6.532,7.978,7.978,0,0,0,6.066,2.581l-.029,4.166a11.906,11.906,0,0,1-9-3.791A13.192,13.192,0,0,1,869,252.9V241.26h4.187Z" transform="translate(818.069 152.378)" fill="#140f4d"/>
    <path id="Path_7" data-name="Path 7" d="M986.621,238.84a12.727,12.727,0,0,1,12.733,12.726v12.562a11.774,11.774,0,0,1-3.54,8.4,12.369,12.369,0,0,1-9.3,3.951v-4.239a8.32,8.32,0,0,0,6.42-2.779,7.794,7.794,0,0,0,2.195-5.329V251.566a8.106,8.106,0,0,0-2.5-5.978,8.479,8.479,0,1,0-11.991,11.991,8.11,8.11,0,0,0,5.984,2.5v4.22a12.729,12.729,0,1,1,0-25.459Z" transform="translate(733.143 154.337)" fill="#140f4d"/>
    <path id="Path_8" data-name="Path 8" d="M1185.1,194.609a12.093,12.093,0,0,1,8.839,3.652,11.886,11.886,0,0,1,3.647,8.831v12.132h-4.14V207.093a8.354,8.354,0,0,0-8.346-8.344,8.122,8.122,0,0,0-5.927,2.448,8.015,8.015,0,0,0-2.436,5.9v12.158h-4.149V183.88h4.149v13.942A12.092,12.092,0,0,1,1185.1,194.609Z" transform="translate(572.262 198.837)" fill="#140f4d"/>
    <path id="Path_9" data-name="Path 9" d="M1354.464,206.407a9.214,9.214,0,0,0,2.33,6.5,7.928,7.928,0,0,0,6.039,2.554l-.027,4.14a11.839,11.839,0,0,1-8.946-3.765,13.11,13.11,0,0,1-3.54-9.433V183.74h4.14v10.868h8.375v4.144h-8.375Z" transform="translate(428.359 198.95)" fill="#140f4d"/>
    <path id="Path_10" data-name="Path 10" d="M298.371,398.034l-.942,1.631a5.811,5.811,0,0,0-3.169-1.03c-1.629,0-2.4.771-2.4,1.37,0,2.392,6.766,1.191,6.766,5.394,0,2.052-1.8,3.852-5.227,3.852a7.167,7.167,0,0,1-4.538-1.621L289.89,406a5.388,5.388,0,0,0,3.344,1.281c1.957,0,2.912-.94,2.912-1.88,0-2.141-6.768-1.032-6.768-5.394,0-1.713,1.713-3.426,4.711-3.426a7.1,7.1,0,0,1,4.282,1.454Z" transform="translate(1287.785 26.62)" fill="#140f4d"/>
    <path id="Path_11" data-name="Path 11" d="M383.632,398.34v1.972h-4.113v10.025h-2.4V400.312H373V398.34Z" transform="translate(1219.664 25.195)" fill="#140f4d"/>
    <path id="Path_12" data-name="Path 12" d="M457.26,405.544v-7.2h2.4v7.2a3.084,3.084,0,0,0,6.169,0v-7.2h2.4v7.2c0,2.992-2.139,5.139-5.483,5.139S457.26,408.536,457.26,405.544Z" transform="translate(1151.441 25.195)" fill="#140f4d"/>
    <path id="Path_13" data-name="Path 13" d="M560.067,398.34c3.856,0,6.427,2.571,6.427,5.994,0,3.521-2.571,6-6.427,6H555.44V398.346Zm-2.227,1.972v8.051h2.227a4.028,4.028,0,0,0,0-8.055Z" transform="translate(1071.948 25.195)" fill="#140f4d"/>
    <path id="Path_14" data-name="Path 14" d="M667.24,410.361h-2.4V398.37h2.4Z" transform="translate(983.37 25.171)" fill="#140f4d"/>
    <path id="Path_15" data-name="Path 15" d="M881.841,398.034l-.94,1.631a5.824,5.824,0,0,0-3.173-1.03c-1.625,0-2.4.771-2.4,1.37,0,2.392,6.772,1.191,6.772,5.394,0,2.052-1.8,3.852-5.232,3.852a7.185,7.185,0,0,1-4.538-1.622L873.36,406a5.389,5.389,0,0,0,3.338,1.281c1.949,0,2.912-.94,2.912-1.88,0-2.141-6.764-1.032-6.764-5.394,0-1.713,1.713-3.426,4.713-3.426A7.1,7.1,0,0,1,881.841,398.034Z" transform="translate(815.372 26.62)" fill="#140f4d"/>
    <path id="Path_16" data-name="Path 16" d="M673.1,65.526H658.24L664.407,0h2.526Z" transform="translate(1005.045 368)" fill="url(#linear-gradient)"/>
    <path id="Path_17" data-name="Path 17" d="M758.946,442.328c0-1.1-3.329-2-7.423-2s-7.423.9-7.423,2,3.327,2.006,7.423,2.006S758.946,443.438,758.946,442.328Z" transform="translate(919.196 -8.803)" fill="#140f4d"/>
  </g>
</svg>
